<mxfile host="www.draw.io" modified="2023-10-19T10:04:53.480Z" agent="Mozilla/5.0 (Windows NT 10.0; Win64; x64) AppleWebKit/537.36 (KHTML, like Gecko) Chrome/118.0.0.0 Safari/537.36 Edg/118.0.2088.46" etag="0BtiWmFN__24wo3n8Buo" version="22.0.5" type="device">
  <diagram name="第 1 页" id="-DS7m_mV1OAbf6A4Av8V">
    <mxGraphModel dx="2987" dy="1285" grid="1" gridSize="10" guides="1" tooltips="1" connect="1" arrows="1" fold="1" page="1" pageScale="1" pageWidth="827" pageHeight="1169" math="0" shadow="0">
      <root>
        <mxCell id="0" />
        <mxCell id="1" parent="0" />
        <mxCell id="iJv7RHhXOmfLmGavJatx-40" value="" style="rounded=0;whiteSpace=wrap;html=1;fillColor=#dae8fc;strokeColor=#6c8ebf;" vertex="1" parent="1">
          <mxGeometry x="510" y="440" width="360" height="259" as="geometry" />
        </mxCell>
        <mxCell id="iJv7RHhXOmfLmGavJatx-2" value="this.counterServer.&lt;b&gt;getNode().apply(task)&lt;/b&gt;;" style="rounded=0;whiteSpace=wrap;html=1;fillColor=#fff2cc;strokeColor=#d6b656;" vertex="1" parent="1">
          <mxGeometry x="30" y="170" width="270" height="30" as="geometry" />
        </mxCell>
        <mxCell id="iJv7RHhXOmfLmGavJatx-10" style="edgeStyle=orthogonalEdgeStyle;rounded=0;orthogonalLoop=1;jettySize=auto;html=1;" edge="1" parent="1" source="iJv7RHhXOmfLmGavJatx-4" target="iJv7RHhXOmfLmGavJatx-8">
          <mxGeometry relative="1" as="geometry">
            <Array as="points">
              <mxPoint x="170" y="340" />
              <mxPoint x="170" y="340" />
            </Array>
          </mxGeometry>
        </mxCell>
        <mxCell id="iJv7RHhXOmfLmGavJatx-11" value="触发注册的Event事件处理器" style="edgeLabel;html=1;align=center;verticalAlign=middle;resizable=0;points=[];" vertex="1" connectable="0" parent="iJv7RHhXOmfLmGavJatx-10">
          <mxGeometry x="-0.2697" y="-2" relative="1" as="geometry">
            <mxPoint as="offset" />
          </mxGeometry>
        </mxCell>
        <mxCell id="iJv7RHhXOmfLmGavJatx-4" value="com.alipay.sofa.jraft.core.NodeImpl#applyQueue" style="rounded=0;whiteSpace=wrap;html=1;fillColor=#f8cecc;strokeColor=#b85450;" vertex="1" parent="1">
          <mxGeometry x="30" y="280" width="280" height="30" as="geometry" />
        </mxCell>
        <mxCell id="iJv7RHhXOmfLmGavJatx-5" style="edgeStyle=orthogonalEdgeStyle;rounded=0;orthogonalLoop=1;jettySize=auto;html=1;entryX=0.485;entryY=0.039;entryDx=0;entryDy=0;entryPerimeter=0;" edge="1" parent="1" source="iJv7RHhXOmfLmGavJatx-2" target="iJv7RHhXOmfLmGavJatx-4">
          <mxGeometry relative="1" as="geometry" />
        </mxCell>
        <mxCell id="iJv7RHhXOmfLmGavJatx-6" value="add to queue" style="edgeLabel;html=1;align=center;verticalAlign=middle;resizable=0;points=[];" vertex="1" connectable="0" parent="iJv7RHhXOmfLmGavJatx-5">
          <mxGeometry x="-0.0923" y="-1" relative="1" as="geometry">
            <mxPoint as="offset" />
          </mxGeometry>
        </mxCell>
        <mxCell id="iJv7RHhXOmfLmGavJatx-8" value="" style="rounded=0;whiteSpace=wrap;html=1;" vertex="1" parent="1">
          <mxGeometry x="75" y="360" width="235" height="270" as="geometry" />
        </mxCell>
        <mxCell id="iJv7RHhXOmfLmGavJatx-13" style="edgeStyle=orthogonalEdgeStyle;rounded=0;orthogonalLoop=1;jettySize=auto;html=1;" edge="1" parent="1" source="iJv7RHhXOmfLmGavJatx-12" target="iJv7RHhXOmfLmGavJatx-8">
          <mxGeometry relative="1" as="geometry" />
        </mxCell>
        <mxCell id="iJv7RHhXOmfLmGavJatx-14" value="注册" style="edgeLabel;html=1;align=center;verticalAlign=middle;resizable=0;points=[];" vertex="1" connectable="0" parent="iJv7RHhXOmfLmGavJatx-13">
          <mxGeometry x="-0.1857" y="-2" relative="1" as="geometry">
            <mxPoint as="offset" />
          </mxGeometry>
        </mxCell>
        <mxCell id="iJv7RHhXOmfLmGavJatx-12" value="Node.init()" style="rounded=0;whiteSpace=wrap;html=1;" vertex="1" parent="1">
          <mxGeometry x="-110" y="465" width="120" height="60" as="geometry" />
        </mxCell>
        <mxCell id="iJv7RHhXOmfLmGavJatx-22" style="edgeStyle=orthogonalEdgeStyle;rounded=0;orthogonalLoop=1;jettySize=auto;html=1;" edge="1" parent="1" source="iJv7RHhXOmfLmGavJatx-17" target="iJv7RHhXOmfLmGavJatx-21">
          <mxGeometry relative="1" as="geometry" />
        </mxCell>
        <mxCell id="iJv7RHhXOmfLmGavJatx-23" value="每条Entry生成一个Ballot元素" style="edgeLabel;html=1;align=center;verticalAlign=middle;resizable=0;points=[];" vertex="1" connectable="0" parent="iJv7RHhXOmfLmGavJatx-22">
          <mxGeometry x="0.0467" y="2" relative="1" as="geometry">
            <mxPoint x="-9" y="2" as="offset" />
          </mxGeometry>
        </mxCell>
        <mxCell id="iJv7RHhXOmfLmGavJatx-17" value="this.ballotBox.appendPendingTask" style="rounded=0;whiteSpace=wrap;html=1;" vertex="1" parent="1">
          <mxGeometry x="90" y="400" width="190" height="30" as="geometry" />
        </mxCell>
        <mxCell id="iJv7RHhXOmfLmGavJatx-19" value="&#xa;&lt;span style=&quot;color: rgb(0, 0, 0); font-family: Helvetica; font-size: 12px; font-style: normal; font-variant-ligatures: normal; font-variant-caps: normal; font-weight: 400; letter-spacing: normal; orphans: 2; text-align: center; text-indent: 0px; text-transform: none; widows: 2; word-spacing: 0px; -webkit-text-stroke-width: 0px; background-color: rgb(251, 251, 251); text-decoration-thickness: initial; text-decoration-style: initial; text-decoration-color: initial; float: none; display: inline !important;&quot;&gt;LogEntryAndClosureHandler&lt;/span&gt;&#xa;&#xa;" style="text;html=1;strokeColor=none;fillColor=none;align=center;verticalAlign=middle;whiteSpace=wrap;rounded=0;" vertex="1" parent="1">
          <mxGeometry x="100" y="370" width="160" height="30" as="geometry" />
        </mxCell>
        <mxCell id="iJv7RHhXOmfLmGavJatx-21" value="com.alipay.sofa.jraft.core.BallotBox#pendingMetaQueue" style="rounded=0;whiteSpace=wrap;html=1;fillColor=#f8cecc;strokeColor=#b85450;" vertex="1" parent="1">
          <mxGeometry x="510" y="400" width="360" height="30" as="geometry" />
        </mxCell>
        <mxCell id="iJv7RHhXOmfLmGavJatx-54" style="edgeStyle=orthogonalEdgeStyle;rounded=0;orthogonalLoop=1;jettySize=auto;html=1;strokeWidth=2;strokeColor=#FF0000;" edge="1" parent="1" source="iJv7RHhXOmfLmGavJatx-25" target="iJv7RHhXOmfLmGavJatx-58">
          <mxGeometry relative="1" as="geometry">
            <mxPoint x="135.02857142857147" y="690" as="targetPoint" />
            <Array as="points">
              <mxPoint x="135" y="580" />
              <mxPoint x="135" y="580" />
            </Array>
          </mxGeometry>
        </mxCell>
        <mxCell id="iJv7RHhXOmfLmGavJatx-55" value="触发 : 日志Entry落盘成功,尝试commit" style="edgeLabel;html=1;align=center;verticalAlign=middle;resizable=0;points=[];" vertex="1" connectable="0" parent="iJv7RHhXOmfLmGavJatx-54">
          <mxGeometry x="-0.2178" y="-1" relative="1" as="geometry">
            <mxPoint x="96" y="2" as="offset" />
          </mxGeometry>
        </mxCell>
        <mxCell id="iJv7RHhXOmfLmGavJatx-25" value="" style="rounded=0;whiteSpace=wrap;html=1;" vertex="1" parent="1">
          <mxGeometry x="90" y="460" width="200" height="70" as="geometry" />
        </mxCell>
        <mxCell id="iJv7RHhXOmfLmGavJatx-26" style="edgeStyle=orthogonalEdgeStyle;rounded=0;orthogonalLoop=1;jettySize=auto;html=1;entryX=0.477;entryY=0.027;entryDx=0;entryDy=0;entryPerimeter=0;" edge="1" parent="1" source="iJv7RHhXOmfLmGavJatx-17" target="iJv7RHhXOmfLmGavJatx-25">
          <mxGeometry relative="1" as="geometry" />
        </mxCell>
        <mxCell id="iJv7RHhXOmfLmGavJatx-28" value="&lt;pre style=&quot;border-color: var(--border-color); color: rgb(40, 40, 40); text-align: left; font-family: &amp;quot;JetBrains Mono&amp;quot;, monospace; font-size: 12px;&quot;&gt;补充Entry的logIndex与解决主从日志冲突&lt;br&gt;&lt;/pre&gt;&lt;pre style=&quot;border-color: var(--border-color); color: rgb(40, 40, 40); text-align: left; font-family: &amp;quot;JetBrains Mono&amp;quot;, monospace; font-size: 12px;&quot;&gt;LogManagerImpl#checkAndResolveConflict&lt;/pre&gt;" style="rounded=0;whiteSpace=wrap;html=1;fontSize=12;" vertex="1" parent="1">
          <mxGeometry x="530" y="448.75" width="330" height="52.5" as="geometry" />
        </mxCell>
        <mxCell id="iJv7RHhXOmfLmGavJatx-38" value="this.logsInMemory.addAll(entries);" style="rounded=0;whiteSpace=wrap;html=1;" vertex="1" parent="1">
          <mxGeometry x="530" y="520" width="200" height="30" as="geometry" />
        </mxCell>
        <mxCell id="iJv7RHhXOmfLmGavJatx-82" style="edgeStyle=orthogonalEdgeStyle;rounded=0;orthogonalLoop=1;jettySize=auto;html=1;entryX=-0.02;entryY=0.526;entryDx=0;entryDy=0;entryPerimeter=0;" edge="1" parent="1" source="iJv7RHhXOmfLmGavJatx-39" target="iJv7RHhXOmfLmGavJatx-83">
          <mxGeometry relative="1" as="geometry">
            <mxPoint x="980" y="592.5" as="targetPoint" />
          </mxGeometry>
        </mxCell>
        <mxCell id="iJv7RHhXOmfLmGavJatx-39" value="通知waitMoreEntrys()挂载的钩子新日志到了&lt;br&gt;wakeupAllWaiter()" style="rounded=0;whiteSpace=wrap;html=1;" vertex="1" parent="1">
          <mxGeometry x="530" y="570" width="280" height="45" as="geometry" />
        </mxCell>
        <mxCell id="iJv7RHhXOmfLmGavJatx-45" style="edgeStyle=orthogonalEdgeStyle;rounded=0;orthogonalLoop=1;jettySize=auto;html=1;entryX=0.5;entryY=1;entryDx=0;entryDy=0;" edge="1" parent="1" source="iJv7RHhXOmfLmGavJatx-41" target="iJv7RHhXOmfLmGavJatx-48">
          <mxGeometry relative="1" as="geometry">
            <Array as="points">
              <mxPoint x="190" y="652" />
            </Array>
          </mxGeometry>
        </mxCell>
        <mxCell id="iJv7RHhXOmfLmGavJatx-46" value="回调&lt;b style=&quot;border-color: var(--border-color); font-size: 12px; background-color: rgb(251, 251, 251);&quot;&gt;&lt;font style=&quot;border-color: var(--border-color);&quot; color=&quot;#ff3333&quot;&gt;LeaderStableClosure&lt;/font&gt;&lt;/b&gt;" style="edgeLabel;html=1;align=center;verticalAlign=middle;resizable=0;points=[];" vertex="1" connectable="0" parent="iJv7RHhXOmfLmGavJatx-45">
          <mxGeometry x="-0.3257" y="1" relative="1" as="geometry">
            <mxPoint as="offset" />
          </mxGeometry>
        </mxCell>
        <mxCell id="iJv7RHhXOmfLmGavJatx-41" value="this.diskQueue.publishEvent() ;//日志落盘事件队列" style="rounded=0;whiteSpace=wrap;html=1;" vertex="1" parent="1">
          <mxGeometry x="530" y="630" width="280" height="45" as="geometry" />
        </mxCell>
        <mxCell id="iJv7RHhXOmfLmGavJatx-42" style="edgeStyle=orthogonalEdgeStyle;rounded=0;orthogonalLoop=1;jettySize=auto;html=1;entryX=-0.006;entryY=0.13;entryDx=0;entryDy=0;entryPerimeter=0;" edge="1" parent="1" source="iJv7RHhXOmfLmGavJatx-25" target="iJv7RHhXOmfLmGavJatx-40">
          <mxGeometry relative="1" as="geometry" />
        </mxCell>
        <mxCell id="iJv7RHhXOmfLmGavJatx-48" value="&lt;b style=&quot;border-color: var(--border-color);&quot;&gt;&lt;font style=&quot;border-color: var(--border-color); font-size: 11px;&quot; color=&quot;#ff3333&quot;&gt;new LeaderStableClosure(entries)&lt;/font&gt;&lt;/b&gt;" style="whiteSpace=wrap;html=1;" vertex="1" parent="1">
          <mxGeometry x="93.75" y="495" width="192.5" height="20" as="geometry" />
        </mxCell>
        <mxCell id="iJv7RHhXOmfLmGavJatx-49" value="&lt;font style=&quot;font-size: 11px;&quot;&gt;this.logManagerImpl.appendEntries()&lt;/font&gt;" style="text;html=1;strokeColor=none;fillColor=none;align=center;verticalAlign=middle;whiteSpace=wrap;rounded=0;" vertex="1" parent="1">
          <mxGeometry x="87.5" y="460" width="205" height="30" as="geometry" />
        </mxCell>
        <mxCell id="iJv7RHhXOmfLmGavJatx-58" value="&lt;div&gt;&lt;br&gt;&lt;/div&gt;&lt;div&gt;&lt;br&gt;&lt;/div&gt;&lt;div&gt;&lt;br&gt;&lt;/div&gt;&lt;div&gt;&lt;br&gt;&lt;/div&gt;" style="rounded=0;whiteSpace=wrap;html=1;align=left;" vertex="1" parent="1">
          <mxGeometry x="420" y="860" width="410" height="191" as="geometry" />
        </mxCell>
        <mxCell id="iJv7RHhXOmfLmGavJatx-69" style="edgeStyle=orthogonalEdgeStyle;rounded=0;orthogonalLoop=1;jettySize=auto;html=1;" edge="1" parent="1" source="iJv7RHhXOmfLmGavJatx-63" target="iJv7RHhXOmfLmGavJatx-68">
          <mxGeometry relative="1" as="geometry" />
        </mxCell>
        <mxCell id="iJv7RHhXOmfLmGavJatx-70" value="addToQueue 日志已多数派提交" style="edgeLabel;html=1;align=center;verticalAlign=middle;resizable=0;points=[];" vertex="1" connectable="0" parent="iJv7RHhXOmfLmGavJatx-69">
          <mxGeometry x="0.0137" y="-1" relative="1" as="geometry">
            <mxPoint as="offset" />
          </mxGeometry>
        </mxCell>
        <mxCell id="iJv7RHhXOmfLmGavJatx-63" value="this.waiter.onCommitted(lastCommittedIndex);" style="rounded=0;whiteSpace=wrap;html=1;" vertex="1" parent="1">
          <mxGeometry x="435" y="1001" width="280" height="30" as="geometry" />
        </mxCell>
        <mxCell id="iJv7RHhXOmfLmGavJatx-65" value="&#xa;&lt;b style=&quot;border-color: var(--border-color); color: rgb(182, 13, 255); font-family: Helvetica; font-size: 12px; font-style: normal; font-variant-ligatures: normal; font-variant-caps: normal; letter-spacing: normal; orphans: 2; text-align: left; text-indent: 0px; text-transform: none; widows: 2; word-spacing: 0px; -webkit-text-stroke-width: 0px; background-color: rgb(251, 251, 251); text-decoration-thickness: initial; text-decoration-style: initial; text-decoration-color: initial;&quot;&gt;BallotBox#commitAt()&lt;/b&gt;&#xa;&#xa;" style="text;html=1;strokeColor=none;fillColor=none;align=center;verticalAlign=middle;whiteSpace=wrap;rounded=0;" vertex="1" parent="1">
          <mxGeometry x="510" y="871" width="160" height="20" as="geometry" />
        </mxCell>
        <mxCell id="iJv7RHhXOmfLmGavJatx-66" value="&lt;div&gt;final &lt;font color=&quot;#ff3333&quot;&gt;&lt;b&gt;Ballot &lt;/b&gt;&lt;/font&gt;bl = this.&lt;b&gt;&lt;font color=&quot;#ff3333&quot;&gt;pendingMetaQueue&lt;/font&gt;&lt;/b&gt;.get((int) (logIndex - this.pendingIndex));&lt;/div&gt;&lt;div&gt;&lt;font color=&quot;#ff2908&quot;&gt;&lt;b&gt;hint = bl.grant(peer, hint);&lt;/b&gt;&lt;/font&gt;&lt;/div&gt;&lt;div&gt;if (&lt;font color=&quot;#ff3333&quot;&gt;bl.isGranted()&lt;/font&gt;) {&lt;/div&gt;&lt;div&gt;&amp;nbsp; &amp;nbsp; lastCommittedIndex = logIndex;&lt;/div&gt;&lt;div&gt;}&lt;/div&gt;&lt;div&gt;&lt;br&gt;&lt;/div&gt;" style="rounded=0;whiteSpace=wrap;html=1;align=left;" vertex="1" parent="1">
          <mxGeometry x="435" y="891" width="385" height="95" as="geometry" />
        </mxCell>
        <mxCell id="iJv7RHhXOmfLmGavJatx-74" style="edgeStyle=orthogonalEdgeStyle;rounded=0;orthogonalLoop=1;jettySize=auto;html=1;entryX=0.5;entryY=0;entryDx=0;entryDy=0;" edge="1" parent="1" source="iJv7RHhXOmfLmGavJatx-68" target="iJv7RHhXOmfLmGavJatx-71">
          <mxGeometry relative="1" as="geometry" />
        </mxCell>
        <mxCell id="iJv7RHhXOmfLmGavJatx-75" value="Event 事件处理" style="edgeLabel;html=1;align=center;verticalAlign=middle;resizable=0;points=[];" vertex="1" connectable="0" parent="iJv7RHhXOmfLmGavJatx-74">
          <mxGeometry x="-0.044" y="1" relative="1" as="geometry">
            <mxPoint as="offset" />
          </mxGeometry>
        </mxCell>
        <mxCell id="iJv7RHhXOmfLmGavJatx-68" value="FSMCallerImpl#taskQueue" style="rounded=0;whiteSpace=wrap;html=1;fillColor=#f8cecc;strokeColor=#b85450;" vertex="1" parent="1">
          <mxGeometry x="900" y="1001" width="190" height="30" as="geometry" />
        </mxCell>
        <mxCell id="iJv7RHhXOmfLmGavJatx-77" style="edgeStyle=orthogonalEdgeStyle;rounded=0;orthogonalLoop=1;jettySize=auto;html=1;entryX=0.5;entryY=0;entryDx=0;entryDy=0;" edge="1" parent="1" source="iJv7RHhXOmfLmGavJatx-71" target="iJv7RHhXOmfLmGavJatx-78">
          <mxGeometry relative="1" as="geometry">
            <mxPoint x="994.9999999999998" y="1131" as="targetPoint" />
            <Array as="points" />
          </mxGeometry>
        </mxCell>
        <mxCell id="iJv7RHhXOmfLmGavJatx-71" value="FSMCallerImpl.ApplyTaskHandler" style="rounded=0;whiteSpace=wrap;html=1;" vertex="1" parent="1">
          <mxGeometry x="880" y="1081" width="230" height="30" as="geometry" />
        </mxCell>
        <mxCell id="iJv7RHhXOmfLmGavJatx-80" style="edgeStyle=orthogonalEdgeStyle;rounded=0;orthogonalLoop=1;jettySize=auto;html=1;entryX=0.5;entryY=0;entryDx=0;entryDy=0;" edge="1" parent="1" source="iJv7RHhXOmfLmGavJatx-78" target="iJv7RHhXOmfLmGavJatx-79">
          <mxGeometry relative="1" as="geometry" />
        </mxCell>
        <mxCell id="iJv7RHhXOmfLmGavJatx-81" value="用户业务处理" style="edgeLabel;html=1;align=center;verticalAlign=middle;resizable=0;points=[];" vertex="1" connectable="0" parent="iJv7RHhXOmfLmGavJatx-80">
          <mxGeometry x="0.1272" relative="1" as="geometry">
            <mxPoint as="offset" />
          </mxGeometry>
        </mxCell>
        <mxCell id="iJv7RHhXOmfLmGavJatx-78" value="FSMCallerImpl#doApplyTasks" style="rounded=0;whiteSpace=wrap;html=1;fillColor=#dae8fc;strokeColor=#6c8ebf;" vertex="1" parent="1">
          <mxGeometry x="880" y="1141" width="230" height="30" as="geometry" />
        </mxCell>
        <mxCell id="iJv7RHhXOmfLmGavJatx-79" value="CounterStateMachine" style="rounded=0;whiteSpace=wrap;html=1;fillColor=#fff2cc;strokeColor=#d6b656;" vertex="1" parent="1">
          <mxGeometry x="910" y="1211" width="170" height="20" as="geometry" />
        </mxCell>
        <mxCell id="iJv7RHhXOmfLmGavJatx-85" style="edgeStyle=orthogonalEdgeStyle;rounded=0;orthogonalLoop=1;jettySize=auto;html=1;entryX=0.5;entryY=0;entryDx=0;entryDy=0;" edge="1" parent="1" source="iJv7RHhXOmfLmGavJatx-83" target="iJv7RHhXOmfLmGavJatx-86">
          <mxGeometry relative="1" as="geometry">
            <mxPoint x="1060" y="644" as="targetPoint" />
          </mxGeometry>
        </mxCell>
        <mxCell id="iJv7RHhXOmfLmGavJatx-83" value="Replicator#continueSending" style="rounded=0;whiteSpace=wrap;html=1;" vertex="1" parent="1">
          <mxGeometry x="980" y="576.25" width="160" height="32.5" as="geometry" />
        </mxCell>
        <mxCell id="iJv7RHhXOmfLmGavJatx-99" style="edgeStyle=orthogonalEdgeStyle;rounded=0;orthogonalLoop=1;jettySize=auto;html=1;entryX=0.5;entryY=0;entryDx=0;entryDy=0;strokeWidth=2;strokeColor=#FF0000;" edge="1" parent="1" source="iJv7RHhXOmfLmGavJatx-86" target="iJv7RHhXOmfLmGavJatx-58">
          <mxGeometry relative="1" as="geometry">
            <Array as="points">
              <mxPoint x="1060" y="750" />
              <mxPoint x="625" y="750" />
            </Array>
          </mxGeometry>
        </mxCell>
        <mxCell id="iJv7RHhXOmfLmGavJatx-101" value="日志Entry落盘成功,尝试commit" style="edgeLabel;html=1;align=center;verticalAlign=middle;resizable=0;points=[];" vertex="1" connectable="0" parent="iJv7RHhXOmfLmGavJatx-99">
          <mxGeometry x="0.3047" y="-2" relative="1" as="geometry">
            <mxPoint as="offset" />
          </mxGeometry>
        </mxCell>
        <mxCell id="iJv7RHhXOmfLmGavJatx-86" value="Replicator#onAppendEntriesReturned" style="rounded=0;whiteSpace=wrap;html=1;" vertex="1" parent="1">
          <mxGeometry x="950" y="637.5" width="220" height="30" as="geometry" />
        </mxCell>
        <mxCell id="iJv7RHhXOmfLmGavJatx-91" style="edgeStyle=orthogonalEdgeStyle;rounded=0;orthogonalLoop=1;jettySize=auto;html=1;entryX=1;entryY=0.25;entryDx=0;entryDy=0;" edge="1" parent="1" source="iJv7RHhXOmfLmGavJatx-89" target="iJv7RHhXOmfLmGavJatx-86">
          <mxGeometry relative="1" as="geometry">
            <Array as="points">
              <mxPoint x="1210" y="800" />
              <mxPoint x="1210" y="645" />
            </Array>
          </mxGeometry>
        </mxCell>
        <mxCell id="iJv7RHhXOmfLmGavJatx-92" value="呈现递归的样式" style="edgeLabel;html=1;align=center;verticalAlign=middle;resizable=0;points=[];" vertex="1" connectable="0" parent="iJv7RHhXOmfLmGavJatx-91">
          <mxGeometry x="0.2867" y="-4" relative="1" as="geometry">
            <mxPoint x="27" y="17" as="offset" />
          </mxGeometry>
        </mxCell>
        <mxCell id="iJv7RHhXOmfLmGavJatx-89" value="Replicator.sendEntries();" style="rounded=0;whiteSpace=wrap;html=1;" vertex="1" parent="1">
          <mxGeometry x="990" y="779.5" width="140" height="30" as="geometry" />
        </mxCell>
        <mxCell id="iJv7RHhXOmfLmGavJatx-97" style="edgeStyle=orthogonalEdgeStyle;rounded=0;orthogonalLoop=1;jettySize=auto;html=1;entryX=0.999;entryY=0.36;entryDx=0;entryDy=0;entryPerimeter=0;" edge="1" parent="1" source="iJv7RHhXOmfLmGavJatx-21" target="iJv7RHhXOmfLmGavJatx-58">
          <mxGeometry relative="1" as="geometry">
            <Array as="points">
              <mxPoint x="900" y="415" />
              <mxPoint x="900" y="929" />
            </Array>
          </mxGeometry>
        </mxCell>
        <mxCell id="iJv7RHhXOmfLmGavJatx-98" value="获取queue元素" style="edgeLabel;html=1;align=center;verticalAlign=middle;resizable=0;points=[];" vertex="1" connectable="0" parent="iJv7RHhXOmfLmGavJatx-97">
          <mxGeometry x="0.6659" y="-3" relative="1" as="geometry">
            <mxPoint as="offset" />
          </mxGeometry>
        </mxCell>
      </root>
    </mxGraphModel>
  </diagram>
</mxfile>
